<?xml version="1.0" encoding="UTF-8"?>
<svg version="1.1" xmlns="http://www.w3.org/2000/svg" width="200" height="200">
<path d="M0 0 C66 0 132 0 200 0 C200 66 200 132 200 200 C134 200 68 200 0 200 C0 134 0 68 0 0 Z " fill="#B0C4CE" transform="translate(0,0)"/>
<path d="M0 0 C3 1 3 1 5.0625 3.3125 C11.54420147 9.2425673 20.41594804 10.70798303 28.8125 12.375 C37.56249517 14.22025215 45.12006614 16.67347028 53 21 C45.15381974 15.26839314 38.08851527 12.68374241 28.70874023 10.57373047 C27.95923096 10.40502441 27.20972168 10.23631836 26.4375 10.0625 C25.69508057 9.89637207 24.95266113 9.73024414 24.18774414 9.55908203 C18.99314677 8.35216855 14.60832355 6.74538424 10 4 C15.54882239 0.30078507 22.85615923 1.48107689 29.2421875 2.53515625 C41.3868623 5.36273321 50.42362033 10.55493158 57.48828125 21.25390625 C61.84644767 29.6057379 62.39960568 39.83554316 59.75 48.8515625 C56.39831724 58.45273706 52.32074304 68.27561438 45.30078125 75.828125 C43.38603755 79.02511448 43.67958618 82.14428658 43.8125 85.75 C43.82603516 86.44738281 43.83957031 87.14476563 43.85351562 87.86328125 C43.8887055 89.57585541 43.94250845 91.28802941 44 93 C44.91523437 93.23203125 45.83046875 93.4640625 46.7734375 93.703125 C50.49467876 95.19882972 51.49549461 96.41949394 53.625 99.75 C54.20636719 100.63945312 54.78773438 101.52890625 55.38671875 102.4453125 C55.91910156 103.28835937 56.45148438 104.13140625 57 105 C57.80934107 106.21045146 58.62116824 107.41925203 59.4375 108.625 C59.953125 109.40875 60.46875 110.1925 61 111 C59.9646962 114.29077069 58.85153872 115.09213723 55.86157227 116.94775391 C54.51929053 117.63606505 53.17036924 118.31152361 51.81640625 118.9765625 C51.09296524 119.34381439 50.36952423 119.71106628 49.62416077 120.08944702 C47.27560195 121.27887635 44.91925365 122.45190497 42.5625 123.625 C40.95623841 124.43494958 39.35060652 125.24614915 37.74560547 126.05859375 C35.36201886 127.26476136 32.97798875 128.46994977 30.59155273 129.67047119 C23.81640229 133.07898388 17.10424762 136.59843683 10.42016602 140.18212891 C7.00916276 141.99784367 3.62547854 143.65619328 0 145 C0.144375 143.72125 0.28875 142.4425 0.4375 141.125 C0.81577146 137.73121239 1.16804212 134.33611636 1.5 130.9375 C1.58636719 130.10347656 1.67273438 129.26945313 1.76171875 128.41015625 C1.91110701 126.89913077 2.04168448 125.38599883 2.14453125 123.87109375 C2.58118859 118.68197972 4.18698206 112.81301794 8 109 C8.07271741 106.64686445 8.08370868 104.29166332 8.0625 101.9375 C8.05347656 100.64714844 8.04445313 99.35679687 8.03515625 98.02734375 C8.02355469 97.02832031 8.01195313 96.02929688 8 95 C7.02160156 95.2165625 7.02160156 95.2165625 6.0234375 95.4375 C-3.76500968 97.51646223 -3.76500968 97.51646223 -8 97 C-9.65625 95.78125 -9.65625 95.78125 -11 94 C-11.22265625 91.73046875 -11.22265625 91.73046875 -11.0625 89.1875 C-10.92144679 84.95590384 -11.5755928 82.00614524 -13 78 C-13.07522969 75.66787973 -13.09325876 73.3314689 -13 71 C-13.78375 70.855625 -14.5675 70.71125 -15.375 70.5625 C-18 70 -18 70 -20 69 C-18.55959835 63.67051389 -15.95580836 59.28676152 -13.14453125 54.5859375 C-11.85901064 51.68145067 -11.94565212 50.89346605 -13 48 C-13.25807249 43.09662274 -12.83112668 39.04150228 -11.75 34.25 C-11.14043673 31.5042922 -11.14043673 31.5042922 -11 29 C-12.64753015 26.4331496 -12.64753015 26.4331496 -15 25 C-16.35682449 20.92952653 -16.52472254 17.25608283 -16 13 C-13.77313259 8.62874175 -11.07979065 5.71986044 -7 3 C-6.01 3 -5.02 3 -4 3 C-2.89453125 4.57421875 -2.89453125 4.57421875 -1.8125 6.6875 C2.30196678 13.48896549 7.20201227 15.68270531 14.82275391 17.6640625 C24.59830174 20.01422785 34.92547401 22 45 22 C41.58656488 19.7752507 38.65764037 18.47460306 34.68359375 17.60546875 C33.67723877 17.37537109 32.67088379 17.14527344 31.6340332 16.90820312 C30.05174927 16.55145508 30.05174927 16.55145508 28.4375 16.1875 C5.47030903 10.70546354 5.47030903 10.70546354 -1 1 C-0.67 0.67 -0.34 0.34 0 0 Z " fill="#06141E" transform="translate(80,34)"/>
<path d="M0 0 C1.37889404 0.00132935 1.37889404 0.00132935 2.78564453 0.00268555 C13.20605858 0.18215937 22.47184096 2.89730522 31.875 7.375 C31.875 8.035 31.875 8.695 31.875 9.375 C32.865 9.6534375 32.865 9.6534375 33.875 9.9375 C41.4724794 13.57795888 47.32971702 20.40083143 51.875 27.375 C51.875 28.035 51.875 28.695 51.875 29.375 C52.535 29.375 53.195 29.375 53.875 29.375 C59.43080866 40.71212984 59.43080866 40.71212984 59.875 47.375 C58.885 47.87 58.885 47.87 57.875 48.375 C59.855 48.87 59.855 48.87 61.875 49.375 C61.9330476 52.64575883 61.96861165 55.91638524 62 59.1875 C62.01675781 60.11626953 62.03351563 61.04503906 62.05078125 62.00195312 C62.05722656 62.89462891 62.06367188 63.78730469 62.0703125 64.70703125 C62.08078613 65.52921143 62.09125977 66.3513916 62.10205078 67.19848633 C61.875 69.375 61.875 69.375 59.875 72.375 C58.39 71.88 58.39 71.88 56.875 71.375 C56.875 72.035 56.875 72.695 56.875 73.375 C55.885 73.87 55.885 73.87 54.875 74.375 C54.08018765 76.68203958 53.36940575 78.97243899 52.6875 81.3125 C50.34347121 88.86448225 47.02272314 95.40419396 41.2265625 100.953125 C39.61527998 102.44682406 39.61527998 102.44682406 38.875 105.375 C39.865 105.375 40.855 105.375 41.875 105.375 C42.16375 106.426875 42.4525 107.47875 42.75 108.5625 C43.64725193 111.60318711 44.63923419 114.46212344 45.875 117.375 C44.885 117.375 43.895 117.375 42.875 117.375 C41.05203421 115.1383953 39.4240296 112.94343529 37.8125 110.5625 C37.36583984 109.91990234 36.91917969 109.27730469 36.45898438 108.61523438 C34.56799628 105.88757591 32.71609582 103.13664373 30.875 100.375 C28.32316596 99.17049696 28.32316596 99.17049696 25.875 98.375 C24.61721702 91.737211 23.54212285 86.02597739 26.63671875 79.87109375 C28.1667511 77.65471944 29.83344311 75.5584735 31.51171875 73.453125 C34.84897972 69.10641154 36.8558201 64.43511348 38.875 59.375 C39.23464844 58.50101563 39.59429687 57.62703125 39.96484375 56.7265625 C43.16974101 48.44609834 42.93957808 38.59540491 39.78125 30.36328125 C36.20829509 22.52434138 30.07319163 15.75092396 22.15625 12.21875 C13.14120294 8.88441753 4.48277068 7.62932228 -5.125 8.375 C-5.785 8.705 -6.445 9.035 -7.125 9.375 C-0.80637605 12.42873085 5.46462574 13.96531116 12.3125 15.25 C20.51678695 16.8343644 29.13570822 18.78288729 34.65625 25.5625 C35.25953125 26.4596875 35.25953125 26.4596875 35.875 27.375 C33.33032143 26.36542644 30.79706927 25.34155082 28.28125 24.26171875 C20.45924038 21.03408844 12.65843981 18.98734101 4.38671875 17.25073242 C-3.93951556 15.43015239 -10.40445051 12.81061818 -16.125 6.375 C-16.785 6.705 -17.445 7.035 -18.125 7.375 C-8.98806852 16.30427394 2.09190316 18.96924649 14.31298828 21.41235352 C20.34496608 22.6987916 24.87597731 24.75659285 29.875 28.375 C26.70083743 29.43305419 25.9838927 29.35781042 22.875 28.625 C18.57795708 27.67851477 14.29103166 26.98352441 9.93847656 26.36303711 C-13.04204978 23.02722662 -13.04204978 23.02722662 -20.125 14.375 C-21.5625 11 -21.5625 11 -22.125 8.375 C-27.30168154 10.96334077 -30.56575422 12.94939894 -33.125 18.375 C-33.81219527 22.79491504 -33.65474355 26.24327514 -31.75 30.3125 C-30.14270773 32.43583743 -30.14270773 32.43583743 -28.125 34.375 C-28.3671875 36.6953125 -28.3671875 36.6953125 -29 39.5 C-30.61216394 47.42516345 -30.61216394 47.42516345 -29.49633789 55.34082031 C-29.00592108 58.02731134 -29.68667808 59.11666447 -30.99609375 61.484375 C-31.40537109 62.23847656 -31.81464844 62.99257812 -32.23632812 63.76953125 C-32.67396484 64.54683594 -33.11160156 65.32414062 -33.5625 66.125 C-33.99626953 66.91777344 -34.43003906 67.71054688 -34.87695312 68.52734375 C-35.94892454 70.48280809 -37.03178122 72.43135908 -38.125 74.375 C-35.815 75.035 -33.505 75.695 -31.125 76.375 C-28.08741326 92.68359676 -28.08741326 92.68359676 -28.1875 97.1875 C-28.36944134 99.58830768 -28.36944134 99.58830768 -26.125 101.375 C-23.87921495 101.43422197 -23.87921495 101.43422197 -21.375 101.0625 C-20.48425781 100.95550781 -19.59351563 100.84851563 -18.67578125 100.73828125 C-16.63218619 100.44723325 -14.59566453 100.10669553 -12.5625 99.75 C-11.758125 99.62625 -10.95375 99.5025 -10.125 99.375 C-8.20892105 101.29107895 -8.90671547 104.57719091 -8.875 107.125 C-8.84921875 108.35734375 -8.8234375 109.5896875 -8.796875 110.859375 C-9.15147009 114.65860814 -9.97994667 116.28673173 -12.125 119.375 C-13.03813881 121.13697207 -13.93449486 122.90775984 -14.8125 124.6875 C-15.24949219 125.57050781 -15.68648437 126.45351562 -16.13671875 127.36328125 C-16.46285156 128.02714844 -16.78898437 128.69101563 -17.125 129.375 C-17.785 129.375 -18.445 129.375 -19.125 129.375 C-19.125 127.065 -19.125 124.755 -19.125 122.375 C-19.99511719 122.01148438 -19.99511719 122.01148438 -20.8828125 121.640625 C-38.6681167 114.00996643 -49.56640362 100.8034991 -57.125 83.375 C-57.82421875 80.44921875 -57.82421875 80.44921875 -58.125 78.375 C-56.805 78.375 -55.485 78.375 -54.125 78.375 C-53.83367188 79.13683594 -53.54234375 79.89867188 -53.2421875 80.68359375 C-47.66505452 94.73165513 -38.92967215 108.22488776 -25.125 115.375 C-22.16627135 116.55939214 -19.20141286 117.54589582 -16.125 118.375 C-16.125 117.715 -16.125 117.055 -16.125 116.375 C-16.681875 116.21644531 -17.23875 116.05789062 -17.8125 115.89453125 C-23.36966878 114.19546444 -28.596578 112.11372443 -33.125 108.375 C-33.125 107.715 -33.125 107.055 -33.125 106.375 C-33.70378906 106.13652344 -34.28257813 105.89804688 -34.87890625 105.65234375 C-43.6091271 100.68750511 -48.33435432 89.33178503 -51.09375 80.15234375 C-52.24964604 75.74816579 -53.125 71.94674647 -53.125 67.375 C-55.84926311 69.72777269 -56.9391763 71.99996331 -58.125 75.375 C-62.79080922 68.37628616 -61.01307788 55.26924446 -59.4375 47.2265625 C-55.36364923 31.84777586 -45.38531038 18.27583918 -32.15625 9.484375 C-30.125 8.375 -30.125 8.375 -28.125 8.375 C-28.125 7.715 -28.125 7.055 -28.125 6.375 C-26.62792061 5.74303616 -25.12713297 5.11985607 -23.625 4.5 C-22.7896875 4.15195312 -21.954375 3.80390625 -21.09375 3.4453125 C-13.94402083 0.86764698 -7.55672421 -0.01315537 0 0 Z M53.875 47.375 C53.875 48.365 53.875 49.355 53.875 50.375 C55.195 50.045 56.515 49.715 57.875 49.375 C56.555 48.715 55.235 48.055 53.875 47.375 Z " fill="#F5F6F7" transform="translate(98.125,28.625)"/>
<path d="M0 0 C0.92828613 0.00088623 1.85657227 0.00177246 2.81298828 0.00268555 C13.27568339 0.18114017 22.55670844 2.8781945 32 7.375 C32 8.035 32 8.695 32 9.375 C32.66 9.560625 33.32 9.74625 34 9.9375 C41.5974794 13.57795888 47.45471702 20.40083143 52 27.375 C52 28.035 52 28.695 52 29.375 C52.66 29.375 53.32 29.375 54 29.375 C59.55580866 40.71212984 59.55580866 40.71212984 60 47.375 C59.01 47.87 59.01 47.87 58 48.375 C59.98 48.87 59.98 48.87 62 49.375 C62.0580476 52.64575883 62.09361165 55.91638524 62.125 59.1875 C62.14175781 60.11626953 62.15851563 61.04503906 62.17578125 62.00195312 C62.18222656 62.89462891 62.18867188 63.78730469 62.1953125 64.70703125 C62.20578613 65.52921143 62.21625977 66.3513916 62.22705078 67.19848633 C62 69.375 62 69.375 60 72.375 C58.515 71.88 58.515 71.88 57 71.375 C57 72.035 57 72.695 57 73.375 C56.01 73.87 56.01 73.87 55 74.375 C54.20518765 76.68203958 53.49440575 78.97243899 52.8125 81.3125 C50.46847121 88.86448225 47.14772314 95.40419396 41.3515625 100.953125 C39.74027998 102.44682406 39.74027998 102.44682406 39 105.375 C39.99 105.375 40.98 105.375 42 105.375 C42.28875 106.426875 42.5775 107.47875 42.875 108.5625 C43.77225193 111.60318711 44.76423419 114.46212344 46 117.375 C45.01 117.375 44.02 117.375 43 117.375 C41.17703421 115.1383953 39.5490296 112.94343529 37.9375 110.5625 C37.49083984 109.91990234 37.04417969 109.27730469 36.58398438 108.61523438 C34.69299628 105.88757591 32.84109582 103.13664373 31 100.375 C28.44816596 99.17049696 28.44816596 99.17049696 26 98.375 C24.74221702 91.737211 23.66712285 86.02597739 26.76171875 79.87109375 C28.2917511 77.65471944 29.95844311 75.5584735 31.63671875 73.453125 C34.97397972 69.10641154 36.9808201 64.43511348 39 59.375 C39.35964844 58.50101563 39.71929687 57.62703125 40.08984375 56.7265625 C43.29474101 48.44609834 43.06457808 38.59540491 39.90625 30.36328125 C36.33329509 22.52434138 30.19819163 15.75092396 22.28125 12.21875 C13.26620294 8.88441753 4.60777068 7.62932228 -5 8.375 C-5.99 8.87 -5.99 8.87 -7 9.375 C-0.68137605 12.42873085 5.58962574 13.96531116 12.4375 15.25 C20.64178695 16.8343644 29.26070822 18.78288729 34.78125 25.5625 C35.1834375 26.160625 35.585625 26.75875 36 27.375 C33.45532143 26.36542644 30.92206927 25.34155082 28.40625 24.26171875 C20.58424038 21.03408844 12.78343981 18.98734101 4.51171875 17.25073242 C-3.53675038 15.49088737 -10.69519258 13.00600928 -16 6.375 C-16 5.055 -16 3.735 -16 2.375 C-10.62008375 0.16286338 -5.72650701 -0.00978274 0 0 Z M54 47.375 C54 48.365 54 49.355 54 50.375 C55.32 50.045 56.64 49.715 58 49.375 C56.68 48.715 55.36 48.055 54 47.375 Z " fill="#F6F7F8" transform="translate(98,28.625)"/>
<path d="M0 0 C0.76014404 0.00281982 1.52028809 0.00563965 2.3034668 0.00854492 C8.50744382 0.18705276 12.89007125 1.62536096 17.8125 5.5 C18.54855469 6.05042969 19.28460938 6.60085937 20.04296875 7.16796875 C20.91888672 7.82732422 20.91888672 7.82732422 21.8125 8.5 C22.245625 7.55125 22.67875 6.6025 23.125 5.625 C24.8125 2.5 24.8125 2.5 27.8125 0.5 C32.59624979 13.95429628 28.51289105 26.06123624 22.8125 38.5 C21.55766836 40.90072291 20.23016104 43.18973756 18.8125 45.5 C17.75 43.6875 17.75 43.6875 16.8125 41.5 C17.1425 40.51 17.4725 39.52 17.8125 38.5 C14.8425 39.16 11.8725 39.82 8.8125 40.5 C8.84730469 39.80132812 8.88210937 39.10265625 8.91796875 38.3828125 C8.94503906 37.47273438 8.97210938 36.56265625 9 35.625 C9.03480469 34.72007813 9.06960937 33.81515625 9.10546875 32.8828125 C8.96044922 31.70332031 8.96044922 31.70332031 8.8125 30.5 C4.9621895 27.93312633 3.22680237 28.66711276 -1.1875 29.5 C-1.620625 30.9540625 -1.620625 30.9540625 -2.0625 32.4375 C-3.1875 35.5 -3.1875 35.5 -5.1875 36.5 C-5.01727281 32.15920659 -4.57527751 29.97961956 -1.8125 26.5625 C2.50497584 23.32439312 7.68618352 24.08952982 12.8125 24.5 C12.8125 23.51 12.8125 22.52 12.8125 21.5 C6.02429019 19.1991885 -0.76746589 17.73487323 -7.828125 16.59057617 C-12.97687637 15.71062363 -12.97687637 15.71062363 -15.1875 13.5 C-13.2075 12.84 -11.2275 12.18 -9.1875 11.5 C-11.8275 11.17 -14.4675 10.84 -17.1875 10.5 C-12.54060629 6.38928633 -7.38057468 6.1963881 -1.33203125 6.27734375 C4.87291097 6.92157272 10.30907395 9.74828698 15.8125 12.5 C18.54822585 13.19907414 18.54822585 13.19907414 20.8125 13.5 C12.84091146 4.47605653 -1.03787072 4.33002796 -12.1875 3.5 C-8.57269373 -0.06736787 -4.81742332 -0.03925967 0 0 Z " fill="#0C1821" transform="translate(111.1875,58.5)"/>
<path d="M0 0 C2.97507136 -0.18594196 4.3250031 -0.19896283 7 1 C10.0949948 4.38784217 12.52999586 8.14229288 15 12 C15.83179054 13.23021122 16.66471416 14.45965933 17.5 15.6875 C17.995 16.450625 18.49 17.21375 19 18 C17.94223819 21.36696012 16.85553787 22.08522227 13.7421875 23.921875 C12.45903913 24.54360668 11.16967993 25.15265262 9.875 25.75 C9.21628906 26.06582031 8.55757812 26.38164062 7.87890625 26.70703125 C6.25781147 27.48233745 4.62956416 28.24265686 3 29 C2.67 28.34 2.34 27.68 2 27 C-0.02045442 27.60183749 -2.02111039 28.27306096 -4 29 C-4.33 29.66 -4.66 30.32 -5 31 C-5.66 31 -6.32 31 -7 31 C-7 31.66 -7 32.32 -7 33 C-7.54140625 33.11214844 -8.0828125 33.22429687 -8.640625 33.33984375 C-11.50028221 34.13997963 -14.05743708 35.3123815 -16.75 36.5625 C-17.73484375 37.01753906 -18.7196875 37.47257812 -19.734375 37.94140625 C-20.48203125 38.29074219 -21.2296875 38.64007813 -22 39 C-23 37 -23 37 -22.5 34.375 C-20.44176759 29.74397707 -17.48602018 26.63436146 -14 23 C-13.55849609 22.53271484 -13.11699219 22.06542969 -12.66210938 21.58398438 C-3.41559889 11.83150888 -3.41559889 11.83150888 1 11 C3.20142332 8.5609294 3.20142332 8.5609294 5 6 C5.33 5.67 5.66 5.34 6 5 C5.34 5 4.68 5 4 5 C3.34 4.34 2.68 3.68 2 3 C-0.10820797 3.3185177 -0.10820797 3.3185177 -2 4 C-1.34 2.68 -0.68 1.36 0 0 Z " fill="#06131D" transform="translate(122,127)"/>
<path d="M0 0 C3 1 3 1 5.0625 3.3125 C11.54420147 9.2425673 20.41594804 10.70798303 28.8125 12.375 C37.56249517 14.22025215 45.12006614 16.67347028 53 21 C45.15381974 15.26839314 38.08851527 12.68374241 28.70874023 10.57373047 C27.95923096 10.40502441 27.20972168 10.23631836 26.4375 10.0625 C25.69508057 9.89637207 24.95266113 9.73024414 24.18774414 9.55908203 C18.99314677 8.35216855 14.60832355 6.74538424 10 4 C15.54882239 0.30078507 22.85615923 1.48107689 29.2421875 2.53515625 C40.94929247 5.26085626 48.0772354 9.81077117 56 19 C58.03756742 22.45527246 58.03756742 22.45527246 57.875 24.8125 C56.56941726 28.07645686 54.79990039 30.98081225 53 34 C51.58235006 33.06398754 50.16592432 32.1261208 48.75 31.1875 C47.96109375 30.66542969 47.1721875 30.14335938 46.359375 29.60546875 C44.18907519 28.12865878 42.08586232 26.59310127 40 25 C44.75 23 44.75 23 47 23 C41.03890391 19.08198762 35.22994223 17.65397753 28.3125 16.125 C5.48435588 10.72653382 5.48435588 10.72653382 -1 1 C-0.67 0.67 -0.34 0.34 0 0 Z " fill="#0C161E" transform="translate(80,34)"/>
<path d="M0 0 C0.66 0 1.32 0 2 0 C2.495 1.98 2.495 1.98 3 4 C2.2265625 4.70125 1.453125 5.4025 0.65625 6.125 C-8.95478931 14.86666798 -18.35694255 23.67927682 -26.3125 34 C-26.869375 34.66 -27.42625 35.32 -28 36 C-28.66 36 -29.32 36 -30 36 C-30.33292585 31.75519536 -30.43885872 29.64457375 -28 26.0625 C-27.01 25.0415625 -27.01 25.0415625 -26 24 C-26.433125 23.13375 -26.433125 23.13375 -26.875 22.25 C-27.91666667 20.16666667 -28.95833333 18.08333333 -30 16 C-28.99582031 15.50371094 -27.99164063 15.00742188 -26.95703125 14.49609375 C-12.59280911 8.44270704 -12.59280911 8.44270704 0 0 Z " fill="#F1F3F4" transform="translate(120,133)"/>
<path d="M0 0 C1.69140625 1.0390625 1.69140625 1.0390625 3.5625 2.625 C12.55230215 9.75698097 22.21349834 12.30115071 33.25390625 14.671875 C39.78329042 16.16905863 44.52493934 18.11362601 50 22 C46.82583743 23.05805419 46.1088927 22.98281042 43 22.25 C38.70295708 21.30351477 34.41603166 20.60852441 30.06347656 19.98803711 C7.15427153 16.66257949 7.15427153 16.66257949 0 8 C-1.3030398 5.6788144 -2.13740982 3.53702994 -3 1 C-2.01 0.67 -1.02 0.34 0 0 Z " fill="#B7C8D0" transform="translate(78,35)"/>
<path d="M0 0 C0.66 0 1.32 0 2 0 C0.76795109 13.552538 -4.79106552 25.92579651 -14 36 C-15.30660285 37.03468197 -16.63335023 38.04603659 -18 39 C-18 38.01 -18 37.02 -18 36 C-18.99 36 -19.98 36 -21 36 C-20.41737148 32.79554312 -19.50927024 31.19249885 -17.25 28.875 C-11.60727748 22.52862863 -8.73761733 15.10917341 -6.7734375 6.93359375 C-6.51820313 6.29550781 -6.26296875 5.65742187 -6 5 C-5.01 4.67 -4.02 4.34 -3 4 C-3 3.34 -3 2.68 -3 2 C-2.01 1.67 -1.02 1.34 0 1 C0 0.67 0 0.34 0 0 Z " fill="#EDF1F4" transform="translate(158,98)"/>
<path d="M0 0 C0.90720795 0.02361099 1.81441589 0.04722198 2.74911499 0.07154846 C5.65321201 0.14826146 8.55704747 0.2322529 11.4609375 0.31640625 C13.42707044 0.36961929 15.39321623 0.42235974 17.359375 0.47460938 C22.18506218 0.60388694 27.01052712 0.73969351 31.8359375 0.87890625 C31.8359375 1.20890625 31.8359375 1.53890625 31.8359375 1.87890625 C25.4009375 2.37390625 25.4009375 2.37390625 18.8359375 2.87890625 C25.7659375 3.37390625 25.7659375 3.37390625 32.8359375 3.87890625 C32.8359375 4.20890625 32.8359375 4.53890625 32.8359375 4.87890625 C31.55952393 4.86843262 30.28311035 4.85795898 28.96801758 4.84716797 C24.22504489 4.81092344 19.48208441 4.78798948 14.73901367 4.76904297 C12.68756043 4.75899556 10.63612146 4.74535533 8.5847168 4.72802734 C5.63326488 4.70372379 2.6820026 4.69241043 -0.26953125 4.68359375 C-1.64168037 4.66810989 -1.64168037 4.66810989 -3.04154968 4.65231323 C-7.63881757 4.65150619 -10.91509114 4.97270495 -15.1640625 6.87890625 C-17.52090306 6.30081328 -19.85417935 5.62276693 -22.1640625 4.87890625 C-24.82760652 4.44432802 -27.4783473 4.16161311 -30.1640625 3.87890625 C-30.1640625 3.21890625 -30.1640625 2.55890625 -30.1640625 1.87890625 C-27.55996505 1.7110933 -24.9557943 1.54460974 -22.3515625 1.37890625 C-21.24458008 1.30736328 -21.24458008 1.30736328 -20.11523438 1.234375 C-17.12581662 1.04500012 -14.16031676 0.87890625 -11.1640625 0.87890625 C-7.72433219 -0.8409589 -3.77535132 -0.11513434 0 0 Z " fill="#829BA7" transform="translate(94.1640625,176.12109375)"/>
<path d="M0 0 C1.859375 0.62890625 1.859375 0.62890625 4 2 C5.203125 4.65234375 5.203125 4.65234375 6.25 7.9375 C8.77456304 14.94587286 12.25088292 20.2992294 17 26 C17.55558594 26.66902344 18.11117187 27.33804688 18.68359375 28.02734375 C23.2951194 33.08122198 28.91580254 35.99640885 35 39 C34.34 40.32 33.68 41.64 33 43 C16.90381767 35.64290656 6.81869581 21.90288664 0 6 C-0.73046875 3.203125 -0.73046875 3.203125 -1 1 C-0.67 0.67 -0.34 0.34 0 0 Z " fill="#ECF1F3" transform="translate(41,106)"/>
<path d="M0 0 C0 0.99 0 1.98 0 3 C-0.50635986 3.25056152 -1.01271973 3.50112305 -1.53442383 3.75927734 C-12.03547694 8.96319286 -22.48598928 14.24081557 -32.81762695 19.77490234 C-36.48544069 21.72888526 -40.08743993 23.5687653 -44 25 C-43.505 20.545 -43.505 20.545 -43 16 C-42.67 16 -42.34 16 -42 16 C-41.67 17.65 -41.34 19.3 -41 21 C-40.67 20.01 -40.34 19.02 -40 18 C-38.19182693 15.62082491 -37.12140537 15.03237477 -34.1875 14.25 C-29.83339445 12.54250763 -27.76392713 9.66563386 -25 6 C-23 8 -23 8 -23 11 C-22.44570312 10.71125 -21.89140625 10.4225 -21.3203125 10.125 C-20.23363281 9.568125 -20.23363281 9.568125 -19.125 9 C-18.40570313 8.62875 -17.68640625 8.2575 -16.9453125 7.875 C-15 7 -15 7 -13 7 C-12.67 6.01 -12.34 5.02 -12 4 C-12 4.66 -12 5.32 -12 6 C-11.01 6 -10.02 6 -9 6 C-9 5.34 -9 4.68 -9 4 C-8.34 4 -7.68 4 -7 4 C-6.67 3.01 -6.34 2.02 -6 1 C-3.90006779 0.25486277 -2.22568901 0 0 0 Z " fill="#091821" transform="translate(124,154)"/>
<path d="M0 0 C1.32 2.64 2.64 5.28 4 8 C3.01 9.485 3.01 9.485 2 11 C2.33 11.66 2.66 12.32 3 13 C2.34 13 1.68 13 1 13 C5.049191 17.83290538 8.96719209 19.3833652 15 21 C15 21.66 15 22.32 15 23 C8.15701288 22.5590075 2.81002376 21.81002376 -2.25 16.75 C-4.32690534 13.48629161 -5.11726557 10.75162134 -6 7 C-6.33 7.99 -6.66 8.98 -7 10 C-8.32 9.34 -9.64 8.68 -11 8 C-4.94594595 0 -4.94594595 0 0 0 Z " fill="#0C1923" transform="translate(76,37)"/>
<path d="M0 0 C-0.33 0.66 -0.66 1.32 -1 2 C-3.33294775 2.04241723 -5.66702567 2.04092937 -8 2 C-8.33 1.67 -8.66 1.34 -9 1 C-9 1.99 -9 2.98 -9 4 C-16.34257259 3.42411195 -26.18864731 2.29843774 -31.88671875 -2.6328125 C-32.25410156 -3.08398438 -32.62148437 -3.53515625 -33 -4 C-22.29094866 -7.56968378 -10.06142984 -4.19226243 0 0 Z " fill="#141D25" transform="translate(123,41)"/>
<path d="M0 0 C3.26533748 1.63266874 3.62486064 5.21260427 4.75 8.5 C7.07646592 14.99169466 9.69708575 20.54886874 14 26 C14.46792969 26.60585937 14.93585937 27.21171875 15.41796875 27.8359375 C17.82360664 30.87014518 17.82360664 30.87014518 21 33 C21 33.66 21 34.32 21 35 C21.69480469 35.26554687 22.38960937 35.53109375 23.10546875 35.8046875 C26.25676076 37.10603076 29.27000171 38.58703383 32.3125 40.125 C33.38113281 40.66382813 34.44976562 41.20265625 35.55078125 41.7578125 C36.35902344 42.16773438 37.16726562 42.57765625 38 43 C38 43.66 38 44.32 38 45 C25.84000663 43.43326586 17.60401761 35.77905356 10.0625 26.65625 C4.46833798 19.22951766 0.29882024 10.27490864 -1 1 C-0.67 0.67 -0.34 0.34 0 0 Z " fill="#1B1F22" transform="translate(44,102)"/>
<path d="M0 0 C0.96873047 0.47179688 0.96873047 0.47179688 1.95703125 0.953125 C8.47249283 3.9122676 14.55176529 5.6360689 21.5625 6.9375 C29.73926421 8.49283213 38.28146022 10.4333722 43.78125 17.1875 C44.1834375 17.785625 44.585625 18.38375 45 19 C42.45532143 17.99042644 39.92206927 16.96655082 37.40625 15.88671875 C29.55826219 12.64836894 21.7091333 10.5888323 13.42382812 8.7878418 C8.30231974 7.65298393 3.74900875 6.23863355 -1 4 C-0.67 2.68 -0.34 1.36 0 0 Z " fill="#E2E9EE" transform="translate(89,37)"/>
<path d="M0 0 C1.14130371 0.00749268 1.14130371 0.00749268 2.30566406 0.01513672 C9.43296896 0.23605575 14.39020309 2.02892926 19.45703125 7.16796875 C20.875 8.8125 20.875 8.8125 22.8125 11.5 C22.4825 12.16 22.1525 12.82 21.8125 13.5 C20.760625 12.7575 19.70875 12.015 18.625 11.25 C9.17710869 5.39496877 -1.25180692 3.85796049 -12.1875 3.5 C-8.57330138 -0.06676819 -4.81707783 -0.04082269 0 0 Z " fill="#BAC6CF" transform="translate(111.1875,58.5)"/>
<path d="M0 0 C12.21669815 0.66069898 22.89395449 2.830705 33.078125 10.01953125 C32.418125 11.00953125 31.758125 11.99953125 31.078125 13.01953125 C31.078125 12.35953125 31.078125 11.69953125 31.078125 11.01953125 C29.97984375 11.09494141 29.97984375 11.09494141 28.859375 11.171875 C25.70531289 10.99911036 24.23647982 10.23414261 21.578125 8.58203125 C15.73257277 4.96972697 10.52814748 4.87846754 3.765625 4.95703125 C2.65477539 4.96379883 2.65477539 4.96379883 1.52148438 4.97070312 C-0.29300399 4.9824095 -2.10745034 5.00034227 -3.921875 5.01953125 C-2.931875 4.35953125 -1.941875 3.69953125 -0.921875 3.01953125 C-1.911875 2.35953125 -2.901875 1.69953125 -3.921875 1.01953125 C-2.921875 0.01953125 -2.921875 0.01953125 0 0 Z " fill="#07151F" transform="translate(99.921875,60.98046875)"/>
<path d="M0 0 C3 1 3 1 5.0625 3.3125 C11.69075786 9.37665081 21.05249949 10.9302035 29.625 12.75 C30.62917969 12.97042969 31.63335937 13.19085938 32.66796875 13.41796875 C35.11042312 13.95298256 37.55427564 14.48017929 40 15 C39.34 15.99 38.68 16.98 38 18 C9.43703299 12.65191308 9.43703299 12.65191308 -1 2 C-0.67 1.34 -0.34 0.68 0 0 Z " fill="#66757C" transform="translate(80,34)"/>
<path d="M0 0 C9.36780824 0.18489095 18.54566799 2.54340136 25.1875 9.375 C24.8575 10.035 24.5275 10.695 24.1875 11.375 C23.52105469 10.9109375 22.85460937 10.446875 22.16796875 9.96875 C18.68055732 8.10392187 15.35516782 7.47543236 11.5 6.875 C5.22930095 5.80809027 -0.7761973 4.42095837 -6.8125 2.375 C-4.31813777 -0.11936223 -3.45532701 0.05059044 0 0 Z " fill="#778892" transform="translate(102.8125,70.625)"/>
<path d="M0 0 C0.54527344 0.495 1.09054688 0.99 1.65234375 1.5 C1.65234375 2.49 1.65234375 3.48 1.65234375 4.5 C1.05808594 4.17386719 0.46382812 3.84773438 -0.1484375 3.51171875 C-10.68469883 -2.04316864 -20.49210695 -3.95340075 -32.34765625 -4.5 C-23.77593388 -13.07172237 -8.11591851 -5.32737215 0 0 Z " fill="#5B6C77" transform="translate(128.34765625,72.5)"/>
<path d="M0 0 C0.66 0 1.32 0 2 0 C1.18205736 11.996492 -5.43235937 23.72610705 -14 32 C-14.66 32 -15.32 32 -16 32 C-15.41737148 28.79554312 -14.50927024 27.19249885 -12.25 24.875 C-6.61248276 18.53448301 -3.75364098 11.04118527 -1.578125 2.93359375 C-1 1 -1 1 0 0 Z " fill="#1C2124" transform="translate(153,102)"/>
<path d="M0 0 C4.0553591 1.35178637 5.39946313 2.33855434 7.375 6.125 C7.27127378 12.14112051 7.27127378 12.14112051 4.81640625 14.8359375 C4.34074219 15.26132813 3.86507812 15.68671875 3.375 16.125 C3.40980469 15.42632812 3.44460937 14.72765625 3.48046875 14.0078125 C3.50753906 13.09773438 3.53460938 12.18765625 3.5625 11.25 C3.59730469 10.34507813 3.63210937 9.44015625 3.66796875 8.5078125 C3.52294922 7.32832031 3.52294922 7.32832031 3.375 6.125 C-0.4753105 3.55812633 -2.21069763 4.29211276 -6.625 5.125 C-6.91375 6.094375 -7.2025 7.06375 -7.5 8.0625 C-8.625 11.125 -8.625 11.125 -10.625 12.125 C-10.44747805 7.59819018 -10.02739364 5.58487844 -7 2.125 C-3.625 0.125 -3.625 0.125 0 0 Z " fill="#AFBCC5" transform="translate(116.625,82.875)"/>
<path d="M0 0 C1.32 0.66 2.64 1.32 4 2 C3.7525 2.9075 3.505 3.815 3.25 4.75 C2.61740673 8.08837848 2.61740673 8.08837848 4.9375 10.375 C5.618125 10.91125 6.29875 11.4475 7 12 C5.25 16.875 5.25 16.875 3 18 C2.855625 17.236875 2.71125 16.47375 2.5625 15.6875 C2.0367406 12.91827092 2.0367406 12.91827092 1 10 C-0.98 10.33 -2.96 10.66 -5 11 C-4.54917531 9.53932801 -4.08906463 8.08151968 -3.625 6.625 C-3.36976562 5.81289062 -3.11453125 5.00078125 -2.8515625 4.1640625 C-2 2 -2 2 0 0 Z " fill="#0F1821" transform="translate(88,143)"/>
<path d="M0 0 C11.73770229 -0.59181692 22.4046232 0.27694976 33 6 C32.67 7.65 32.34 9.3 32 11 C30.8553125 10.1028125 30.8553125 10.1028125 29.6875 9.1875 C23.41958303 4.99898677 15.37665017 3.8196278 8 3 C8 2.67 8 2.34 8 2 C5.36 1.67 2.72 1.34 0 1 C0 0.67 0 0.34 0 0 Z " fill="#12212C" transform="translate(94,68)"/>
<path d="M0 0 C2 3 2 3 3.3125 5.4375 C7.23944717 11.400642 12.42670351 13.10964023 19 15 C19 15.66 19 16.32 19 17 C12.08233112 16.55419467 6.90767265 15.67811955 1.625 10.8125 C-0.608371 6.94705019 -0.29941743 4.41640708 0 0 Z " fill="#70818C" transform="translate(72,43)"/>
<path d="M0 0 C5.36201925 1.30780957 9.39418473 3.84784909 13 8 C13.69921875 10.1953125 13.69921875 10.1953125 14 12 C11.72791794 10.8774654 9.45732355 9.75208479 7.1875 8.625 C6.54490234 8.30789062 5.90230469 7.99078125 5.24023438 7.6640625 C2.36805539 6.23541389 -0.3267821 4.78214527 -3 3 C-2.34 3 -1.68 3 -1 3 C-0.67 2.01 -0.34 1.02 0 0 Z " fill="#B0BEC8" transform="translate(120,60)"/>
<path d="M0 0 C2.20560604 1.17901298 4.00798133 2.46767795 6 4 C2.71192029 5.09602657 1.65805438 4.88583482 -1.625 4.125 C-6.41504658 3.08246045 -11.12203991 2.47206065 -16 2 C-10.33267406 -2.49477575 -6.64408399 -2.15819735 0 0 Z " fill="#B1C0C7" transform="translate(122,53)"/>
<path d="M0 0 C0 0.66 0 1.32 0 2 C1.32 2.66 2.64 3.32 4 4 C0.73591409 5.78041049 -0.63617347 6.08924047 -4.3125 5.1875 C-5.529375 4.795625 -6.74625 4.40375 -8 4 C-10.66354402 3.56542177 -13.3142848 3.28270686 -16 3 C-16 2.34 -16 1.68 -16 1 C-10.59255982 0.22750855 -5.46137814 -0.09752461 0 0 Z " fill="#97ADB8" transform="translate(80,177)"/>
<path d="M0 0 C7.78611779 0.25528255 13.59762605 2.51833823 20 7 C21.8203125 9.19921875 21.8203125 9.19921875 23 11 C22.31035156 10.72285156 21.62070313 10.44570313 20.91015625 10.16015625 C17.7584613 8.90370873 14.60046842 7.6653035 11.4375 6.4375 C10.32246094 6.00308594 9.20742187 5.56867187 8.05859375 5.12109375 C5.15921541 3.96896153 5.15921541 3.96896153 2.66015625 3.53515625 C2.11230469 3.35855469 1.56445312 3.18195312 1 3 C0.67 2.01 0.34 1.02 0 0 Z " fill="#E1E7EA" transform="translate(111,45)"/>
<path d="M0 0 C3.35792757 1.67896378 3.8573341 5.50288131 5.0625 8.875 C5.33126953 9.60847656 5.60003906 10.34195313 5.87695312 11.09765625 C6.95632322 14.05313846 8.00500152 17.01500456 9 20 C8.01 20.33 7.02 20.66 6 21 C2.77085449 14.40613417 0.17323146 8.27403507 -1 1 C-0.67 0.67 -0.34 0.34 0 0 Z " fill="#252A2D" transform="translate(44,102)"/>
<path d="M0 0 C-0.33 0.99 -0.66 1.98 -1 3 C-0.34 3.33 0.32 3.66 1 4 C-5.435 6.97 -5.435 6.97 -12 10 C-11.67 7.03 -11.34 4.06 -11 1 C-10.67 1 -10.34 1 -10 1 C-9.67 2.65 -9.34 4.3 -9 6 C-8.67 5.01 -8.34 4.02 -8 3 C-5.63336089 -0.1949628 -3.86844889 -0.31365802 0 0 Z " fill="#101E28" transform="translate(92,169)"/>
<path d="M0 0 C6.88940671 0.43632909 13.35751464 1.08389845 20 3 C19.01 4.485 19.01 4.485 18 6 C15.18494942 5.38504727 12.37335056 4.75862099 9.5625 4.125 C8.76005859 3.95097656 7.95761719 3.77695312 7.13085938 3.59765625 C5.0717622 3.12849487 3.03341657 2.57027241 1 2 C0.67 1.34 0.34 0.68 0 0 Z " fill="#586770" transform="translate(100,46)"/>
<path d="M0 0 C3.48872415 1.16290805 4.09976864 2.13967609 6.1875 5.0625 C6.71730469 5.79597656 7.24710938 6.52945313 7.79296875 7.28515625 C8.19128906 7.85105469 8.58960938 8.41695312 9 9 C8.01 9.66 7.02 10.32 6 11 C4.79794536 9.93283928 3.61367667 8.84561663 2.4375 7.75 C1.77621094 7.14671875 1.11492188 6.5434375 0.43359375 5.921875 C-1 4 -1 4 -0.71484375 1.765625 C-0.47894531 1.18296875 -0.24304687 0.6003125 0 0 Z " fill="#E5E9EC" transform="translate(53,128)"/>
<path d="M0 0 C-0.33 2.31 -0.66 4.62 -1 7 C-4.63 7 -8.26 7 -12 7 C-8.85595666 3.85595666 -4.70527539 0 0 0 Z " fill="#A0B4BE" transform="translate(98,170)"/>
<path d="M0 0 C0.66 0 1.32 0 2 0 C2.33 2.31 2.66 4.62 3 7 C2.34 7 1.68 7 1 7 C0.67 8.32 0.34 9.64 0 11 C-0.99 11 -1.98 11 -3 11 C-2.25 3.375 -2.25 3.375 0 0 Z " fill="#CED1D1" transform="translate(43,96)"/>
<path d="M0 0 C-2.99806666 3.34399743 -5.92709743 5.14063143 -10 7 C-10.99 7.495 -10.99 7.495 -12 8 C-12 6.35 -12 4.7 -12 3 C-10.3789897 2.30314502 -8.75303934 1.61777139 -7.125 0.9375 C-6.22007813 0.55464844 -5.31515625 0.17179687 -4.3828125 -0.22265625 C-2 -1 -2 -1 0 0 Z " fill="#E7EEEF" transform="translate(82,32)"/>
<path d="M0 0 C2.53541298 0.09086451 5.03554784 0.2370945 7.5625 0.4375 C8.62887695 0.51581055 8.62887695 0.51581055 9.71679688 0.59570312 C11.47821999 0.72574107 13.23916173 0.86226897 15 1 C15 1.33 15 1.66 15 2 C13.865625 2.309375 12.73125 2.61875 11.5625 2.9375 C8.21224901 3.62924531 8.21224901 3.62924531 7 5 C4.32941149 5.14115161 1.67567762 5.04247107 -1 5 C-0.01 4.34 0.98 3.68 2 3 C1.01 2.34 0.02 1.68 -1 1 C-0.67 0.67 -0.34 0.34 0 0 Z " fill="#192630" transform="translate(97,61)"/>
<path d="M0 0 C5.41390868 0.46671627 9.20517932 1.24297811 14 4 C13.67 4.66 13.34 5.32 13 6 C7.57689095 5.56615128 4.29855944 4.35497322 0 1 C0 0.67 0 0.34 0 0 Z " fill="#19242D" transform="translate(117,50)"/>
<path d="M0 0 C0.66 0.66 1.32 1.32 2 2 C0.35 2.33 -1.3 2.66 -3 3 C-3 3.66 -3 4.32 -3 5 C-4.65 5.66 -6.3 6.32 -8 7 C-8.33 5.68 -8.66 4.36 -9 3 C-6.04288438 1.35715799 -3.37991574 0.3557806 0 0 Z " fill="#BECED5" transform="translate(73,32)"/>
<path d="M0 0 C0.99 0.33 1.98 0.66 3 1 C2.01 2.485 2.01 2.485 1 4 C0.34 4 -0.32 4 -1 4 C-1.28875 4.969375 -1.5775 5.93875 -1.875 6.9375 C-3 10 -3 10 -5 11 C-4.50769231 4.6 -4.50769231 4.6 -1.9375 1.5625 C-0.9784375 0.7890625 -0.9784375 0.7890625 0 0 Z " fill="#B3C1CB" transform="translate(111,84)"/>
<path d="M0 0 C4.42857143 5.14285714 4.42857143 5.14285714 5 9 C4.01 9 3.02 9 2 9 C-0.1875 6.5 -0.1875 6.5 -2 4 C-1.34 2.68 -0.68 1.36 0 0 Z " fill="#E6EFF2" transform="translate(139,137)"/>
<path d="M0 0 C0.66 0.33 1.32 0.66 2 1 C2 1.66 2 2.32 2 3 C2.99 2.67 3.98 2.34 5 2 C5 2.99 5 3.98 5 5 C4.34 5 3.68 5 3 5 C2.01 6.485 2.01 6.485 1 8 C0.01904252 9.01868662 -0.97702078 10.02351983 -2 11 C-2 7.89448334 -1.4606285 6.64738916 0 4 C-0.66 3.01 -1.32 2.02 -2 1 C-1.34 0.67 -0.68 0.34 0 0 Z " fill="#020D16" transform="translate(124,129)"/>
<path d="M0 0 C2.49361571 1.20381448 4.68143083 2.45428722 7 4 C7 4.99 7 5.98 7 7 C3.64404172 6.40072174 1.62198774 5.15377564 -1 3 C-0.67 2.01 -0.34 1.02 0 0 Z " fill="#F0F5F7" transform="translate(61,137)"/>
<path d="M0 0 C1.3921875 0.3403125 1.3921875 0.3403125 2.8125 0.6875 C2.1525 2.3375 1.4925 3.9875 0.8125 5.6875 C-1.4975 4.6975 -3.8075 3.7075 -6.1875 2.6875 C-4.14987265 -0.14253799 -3.59070275 -0.35202968 0 0 Z " fill="#132028" transform="translate(126.1875,57.3125)"/>
<path d="M0 0 C-0.99 0.495 -0.99 0.495 -2 1 C-1.01 1.66 -0.02 2.32 1 3 C-3.29 3 -7.58 3 -12 3 C-11.67 2.01 -11.34 1.02 -11 0 C-3.57142857 -1.28571429 -3.57142857 -1.28571429 0 0 Z " fill="#202D36" transform="translate(115,56)"/>
<path d="M0 0 C2 3 2 3 2 5 C2.66 5.33 3.32 5.66 4 6 C2.02 6.99 0.04 7.98 -2 9 C-3 7 -3 7 -2.125 3.9375 C-1 1 -1 1 0 0 Z " fill="#040E18" transform="translate(102,157)"/>
<path d="M0 0 C5.445 1.485 5.445 1.485 11 3 C11 3.66 11 4.32 11 5 C9.56163249 4.88541307 8.12429034 4.75790884 6.6875 4.625 C5.88699219 4.55539063 5.08648437 4.48578125 4.26171875 4.4140625 C2 4 2 4 -1 2 C-0.67 1.34 -0.34 0.68 0 0 Z " fill="#61727C" transform="translate(80,55)"/>
<path d="M0 0 C2.31 0 4.62 0 7 0 C4.03 3.96 4.03 3.96 1 8 C0 4 0 4 0 0 Z " fill="#BDCBCD" transform="translate(48,48)"/>
<path d="M0 0 C4.455 1.98 4.455 1.98 9 4 C8.01 4.495 8.01 4.495 7 5 C6.67 5.66 6.34 6.32 6 7 C3.69 6.01 1.38 5.02 -1 4 C-0.67 2.68 -0.34 1.36 0 0 Z " fill="#D4D9DF" transform="translate(89,37)"/>
<path d="M0 0 C0.66 0.99 1.32 1.98 2 3 C1.67 3.99 1.34 4.98 1 6 C-1.31 6.33 -3.62 6.66 -6 7 C-4.02 4.69 -2.04 2.38 0 0 Z " fill="#1D252B" transform="translate(110,148)"/>
<path d="M0 0 C-0.33 1.65 -0.66 3.3 -1 5 C-1.99 5.33 -2.98 5.66 -4 6 C-4.66 6.66 -5.32 7.32 -6 8 C-5.74438677 5.6568787 -5.40729228 3.32156597 -5 1 C-3 0 -3 0 0 0 Z " fill="#AABBC3" transform="translate(80,151)"/>
<path d="M0 0 C0.66 0 1.32 0 2 0 C1.25 6.625 1.25 6.625 -1 10 C-1.66 10 -2.32 10 -3 10 C-2.69201674 8.51988629 -2.378482 7.04092675 -2.0625 5.5625 C-1.88847656 4.73878906 -1.71445313 3.91507812 -1.53515625 3.06640625 C-1 1 -1 1 0 0 Z " fill="#2A2F36" transform="translate(153,102)"/>
<path d="M0 0 C0.33 0.99 0.66 1.98 1 3 C1.66 3 2.32 3 3 3 C7.06153846 9.4 7.06153846 9.4 6.75 12.4375 C6.5025 12.953125 6.255 13.46875 6 14 C5.34 12.02 4.68 10.04 4 8 C3.34 8 2.68 8 2 8 C0.93224776 6.03533587 -0.06553465 4.03144641 -1 2 C-0.67 1.34 -0.34 0.68 0 0 Z " fill="#C2CDD2" transform="translate(148,50)"/>
<path d="M0 0 C0 0.66 0 1.32 0 2 C0.66 2.33 1.32 2.66 2 3 C-2.51617599 3.07654536 -6.59085217 3.10228696 -11 2 C-11 1.67 -11 1.34 -11 1 C-7.26562152 0.12132271 -3.83225427 -0.08912219 0 0 Z " fill="#6E808A" transform="translate(112,73)"/>
<path d="M0 0 C1.98 0.66 3.96 1.32 6 2 C5.67 2.66 5.34 3.32 5 4 C3.67851173 4.37756808 2.34164079 4.7018576 1 5 C-0.6744239 5.6469365 -2.34302621 6.30959426 -4 7 C-4.66 6.34 -5.32 5.68 -6 5 C-4.68 5 -3.36 5 -2 5 C-2 4.34 -2 3.68 -2 3 C-1.34 3 -0.68 3 0 3 C0 2.01 0 1.02 0 0 Z " fill="#0C1C26" transform="translate(86,49)"/>
<path d="M0 0 C3.64553172 1.2808625 5.16671013 2.16671013 8 5 C3.71 4.34 -0.58 3.68 -5 3 C-3.68 2.34 -2.36 1.68 -1 1 C-0.67 0.67 -0.34 0.34 0 0 Z " fill="#A5B2BA" transform="translate(120,53)"/>
<path d="M0 0 C0.82638376 2.89234315 1 4.88742431 1 8 C0.01 8.33 -0.98 8.66 -2 9 C-2.125 5.625 -2.125 5.625 -2 2 C-1.34 1.34 -0.68 0.68 0 0 Z " fill="#C7CDD1" transform="translate(92,160)"/>
<path d="M0 0 C0.99 0.33 1.98 0.66 3 1 C2.67 1.66 2.34 2.32 2 3 C1.34 3 0.68 3 0 3 C0 3.66 0 4.32 0 5 C-2.375 6.6875 -2.375 6.6875 -5 8 C-5.66 7.67 -6.32 7.34 -7 7 C-4.69 4.69 -2.38 2.38 0 0 Z " fill="#22272E" transform="translate(118,140)"/>
<path d="M0 0 C2 1 2 1 2.6328125 2.84765625 C2.79523437 3.57855469 2.95765625 4.30945313 3.125 5.0625 C3.29257812 5.79597656 3.46015625 6.52945313 3.6328125 7.28515625 C3.75398438 7.85105469 3.87515625 8.41695312 4 9 C3.01 9.33 2.02 9.66 1 10 C0.63883954 8.5225254 0.28624952 7.04295325 -0.0625 5.5625 C-0.25972656 4.73878906 -0.45695312 3.91507812 -0.66015625 3.06640625 C-0.82837891 2.04353516 -0.82837891 2.04353516 -1 1 C-0.67 0.67 -0.34 0.34 0 0 Z " fill="#323539" transform="translate(44,102)"/>
<path d="M0 0 C4.43458973 1.3937282 6.87378374 3.60582235 10 7 C5.96479403 5.41037341 1.98188718 3.71767682 -2 2 C-1.34 1.34 -0.68 0.68 0 0 Z " fill="#C2CCD3" transform="translate(124,49)"/>
<path d="M0 0 C7.42857143 -0.28571429 7.42857143 -0.28571429 11 2 C9.4375 3.1875 9.4375 3.1875 7 4 C3.25 2.625 3.25 2.625 0 1 C0 0.67 0 0.34 0 0 Z " fill="#415057" transform="translate(109,48)"/>
<path d="M0 0 C-1.375 1.5 -1.375 1.5 -3 3 C-3.66 3 -4.32 3 -5 3 C-5 3.66 -5 4.32 -5 5 C-5.99 5 -6.98 5 -8 5 C-7.75 3.125 -7.75 3.125 -7 1 C-4.09342573 -1.03460199 -3.47133392 -1.15711131 0 0 Z " fill="#9CAFB8" transform="translate(107,167)"/>
<path d="M0 0 C1.32 0.33 2.64 0.66 4 1 C3.34 2.32 2.68 3.64 2 5 C0.68 5 -0.64 5 -2 5 C-1.34 3.35 -0.68 1.7 0 0 Z " fill="#F6FAFC" transform="translate(94,159)"/>
<path d="M0 0 C-0.99 0.495 -0.99 0.495 -2 1 C-2.65213292 3.02463255 -2.65213292 3.02463255 -3 5 C-3.99 4.67 -4.98 4.34 -6 4 C-6.33 3.01 -6.66 2.02 -7 1 C-3.375 -1.125 -3.375 -1.125 0 0 Z " fill="#9DAFB9" transform="translate(115,163)"/>
<path d="M0 0 C0.33 0 0.66 0 1 0 C1.33 2.64 1.66 5.28 2 8 C0.35 8.33 -1.3 8.66 -3 9 C-2.01 6.03 -1.02 3.06 0 0 Z " fill="#1C252E" transform="translate(86,145)"/>
<path d="M0 0 C1 3 1 3 -0.4375 6.1875 C-1.2109375 7.5796875 -1.2109375 7.5796875 -2 9 C-2.66 8.67 -3.32 8.34 -4 8 C-3.40138258 5.64828869 -2.73075648 3.3140622 -2 1 C-1.34 0.67 -0.68 0.34 0 0 Z " fill="#E9EEF2" transform="translate(68,83)"/>
<path d="M0 0 C0.99 0.66 1.98 1.32 3 2 C3 2.99 3 3.98 3 5 C1.68 5.33 0.36 5.66 -1 6 C-1.66 4.35 -2.32 2.7 -3 1 C-2.01 0.67 -1.02 0.34 0 0 Z " fill="#AFBCC3" transform="translate(78,35)"/>
<path d="M0 0 C0.66 0.66 1.32 1.32 2 2 C1.625 4.125 1.625 4.125 1 6 C-0.98 6 -2.96 6 -5 6 C-3.35 4.02 -1.7 2.04 0 0 Z " fill="#1D2630" transform="translate(99,160)"/>
<path d="M0 0 C3.34373475 0.55728913 6.03312999 1.35173889 9 3 C9 3.66 9 4.32 9 5 C7.68 5.33 6.36 5.66 5 6 C4.731875 5.38125 4.46375 4.7625 4.1875 4.125 C3.04443152 1.7004767 3.04443152 1.7004767 0 0 Z " fill="#ADBDC3" transform="translate(61,143)"/>
<path d="M0 0 C0.66 0.99 1.32 1.98 2 3 C0.71034824 4.37562854 -0.62689293 5.70766393 -2 7 C-2.66 7 -3.32 7 -4 7 C-3.43628586 3.73045798 -2.50037734 2.17424117 0 0 Z " fill="#27282D" transform="translate(141,127)"/>
<path d="M0 0 C2.31 0.33 4.62 0.66 7 1 C7.33 1.99 7.66 2.98 8 4 C7.34 4 6.68 4 6 4 C5.67 4.66 5.34 5.32 5 6 C3.35 4.02 1.7 2.04 0 0 Z " fill="#04111C" transform="translate(127,71)"/>
<path d="M0 0 C-0.99 0.33 -1.98 0.66 -3 1 C-3 1.66 -3 2.32 -3 3 C-4.65 3.33 -6.3 3.66 -8 4 C-8 2.68 -8 1.36 -8 0 C-4.71023192 -1.09658936 -3.28696233 -0.79953138 0 0 Z " fill="#0B1C27" transform="translate(85,59)"/>
<path d="M0 0 C0.33 0 0.66 0 1 0 C1.33 1.65 1.66 3.3 2 5 C2.66 5 3.32 5 4 5 C4 5.66 4 6.32 4 7 C2.35 7.66 0.7 8.32 -1 9 C-0.67 6.03 -0.34 3.06 0 0 Z " fill="#1F303B" transform="translate(81,170)"/>
<path d="M0 0 C2.31 0.33 4.62 0.66 7 1 C6.67 1.99 6.34 2.98 6 4 C4.02 3.34 2.04 2.68 0 2 C0 1.34 0 0.68 0 0 Z " fill="#A7B4BD" transform="translate(113,83)"/>
<path d="M0 0 C0 0.99 0 1.98 0 3 C-1.32 3.33 -2.64 3.66 -4 4 C-4.66 2.68 -5.32 1.36 -6 0 C-3.50907189 -1.24546405 -2.58919267 -0.7767578 0 0 Z " fill="#101F2A" transform="translate(98,72)"/>
<path d="M0 0 C1.65 0.99 3.3 1.98 5 3 C4.01 4.485 4.01 4.485 3 6 C3 5.34 3 4.68 3 4 C1.35 4 -0.3 4 -2 4 C-2.33 3.34 -2.66 2.68 -3 2 C-2.01 1.34 -1.02 0.68 0 0 Z " fill="#14212D" transform="translate(128,68)"/>
<path d="M0 0 C2.64 0.33 5.28 0.66 8 1 C8 1.66 8 2.32 8 3 C2.25 3.125 2.25 3.125 0 2 C0 1.34 0 0.68 0 0 Z " fill="#F1F3F7" transform="translate(96,42)"/>
<path d="M0 0 C0.66 0.66 1.32 1.32 2 2 C1.75 4.5625 1.75 4.5625 1 7 C0.01 7.495 0.01 7.495 -1 8 C-1.66 7.34 -2.32 6.68 -3 6 C-2.01 4.02 -1.02 2.04 0 0 Z " fill="#12191E" transform="translate(67,88)"/>
<path d="M0 0 C0.598125 0.350625 1.19625 0.70125 1.8125 1.0625 C1.4825 1.7225 1.1525 2.3825 0.8125 3.0625 C-2.1575 2.5675 -2.1575 2.5675 -5.1875 2.0625 C-5.1875 1.4025 -5.1875 0.7425 -5.1875 0.0625 C-2.1875 -0.9375 -2.1875 -0.9375 0 0 Z " fill="#0C1C26" transform="translate(126.1875,66.9375)"/>
<path d="M0 0 C0.93423645 3.01031744 1.04449911 3.86650268 0 7 C-1.32 6.34 -2.64 5.68 -4 5 C-2.68 3.35 -1.36 1.7 0 0 Z " fill="#1C232B" transform="translate(69,40)"/>
<path d="M0 0 C2.72426311 2.35277269 3.8141763 4.62496331 5 8 C2.69 6.02 0.38 4.04 -2 2 C-1.34 1.34 -0.68 0.68 0 0 Z " fill="#BECBD3" transform="translate(139,40)"/>
<path d="M0 0 C-0.66 1.32 -1.32 2.64 -2 4 C-3.98 4 -5.96 4 -8 4 C-2.7826087 0 -2.7826087 0 0 0 Z " fill="#9CAEB8" transform="translate(137,150)"/>
<path d="M0 0 C0.66 1.32 1.32 2.64 2 4 C-0.475 5.485 -0.475 5.485 -3 7 C-2.625 4.0625 -2.625 4.0625 -2 1 C-1.34 0.67 -0.68 0.34 0 0 Z " fill="#111E27" transform="translate(139,143)"/>
<path d="M0 0 C0.33 0.66 0.66 1.32 1 2 C1.99 2 2.98 2 4 2 C4 2.66 4 3.32 4 4 C2.02 4.99 2.02 4.99 0 6 C-0.66 5.34 -1.32 4.68 -2 4 C-1.34 2.68 -0.68 1.36 0 0 Z " fill="#131D25" transform="translate(115,131)"/>
<path d="M0 0 C0.66 0 1.32 0 2 0 C1.8125 1.875 1.8125 1.875 1 4 C-1.5625 5.25 -1.5625 5.25 -4 6 C-2.7260411 3.96166576 -1.38938077 1.96147874 0 0 Z " fill="#E8EDF0" transform="translate(132,100)"/>
<path d="M0 0 C3.39914975 1.13304992 4.05254451 2.12518475 6 5 C5.01 5.33 4.02 5.66 3 6 C1.68 4.35 0.36 2.7 -1 1 C-0.67 0.67 -0.34 0.34 0 0 Z " fill="#7A8888" transform="translate(80,34)"/>
</svg>
